<?xml version="1.0" encoding="utf-8"?>
<!-- Generator: Adobe Illustrator 23.0.3, SVG Export Plug-In . SVG Version: 6.00 Build 0)  -->
<svg version="1.1" id="ppxhs" xmlns="http://www.w3.org/2000/svg" xmlns:xlink="http://www.w3.org/1999/xlink" x="0px" y="0px"
	 viewBox="0 0 353.962 327.971" style="enable-background:new 0 0 353.962 327.971;" xml:space="preserve">
<style type="text/css">
	.st0{fill:#FCD5D9;}
	.st1{fill-rule:evenodd;clip-rule:evenodd;fill:url(#SVGID_1_);}
	.st2{fill-rule:evenodd;clip-rule:evenodd;fill:url(#SVGID_2_);}
	.st3{fill-rule:evenodd;clip-rule:evenodd;fill:url(#SVGID_3_);}
	.st4{fill-rule:evenodd;clip-rule:evenodd;fill:#FFFFFF;}
</style>
<path class="st0" d="M137.994,21.926C220.849-29.358,279.596,9.33,314.227,138.022c-0.743-0.022-1.485-0.044-2.233-0.044
	c-41.148,0-74.54,33.141-74.979,74.185c-0.021,0.003-0.041,0.007-0.061,0.01c0.019,0.267,0.041,0.533,0.041,0.805
	c0,6.075-4.925,11-11,11c-0.684,0-1.351-0.071-2-0.19v-18.81c0-41.421-33.578-75-75-75c-3.738,0-7.409,0.283-11,0.811
	L137.994,21.926L137.994,21.926z M322.994,212.978c0-6.075-4.925-11-11-11s-11,4.925-11,11c0,0.272,0.021,0.538,0.041,0.805
	c-0.021,0.003-0.041,0.007-0.061,0.01c-0.439,41.044-33.832,74.185-74.979,74.185c-41.422,0-75-33.579-75-75
	c0-6.263,0.78-12.341,2.231-18.154c-1.303-0.543-2.731-0.846-4.231-0.846c-6.075,0-11,4.925-11,11v109.225
	c0.211,0.057,0.414,0.116,0.625,0.172c140.305,37.595,202.637-2.784,187.008-121.125
	C323.916,199.537,322.994,206.149,322.994,212.978z M73.994,204.978V74.565c-98.658,98.802-98.659,171.169,0,217.1V204.978z"/>
<linearGradient id="SVGID_1_" gradientUnits="userSpaceOnUse" x1="187.0921" y1="-6.9262" x2="302.6319" y2="193.1946" gradientTransform="matrix(1 0 0 -1 0 327.89)">
	<stop  offset="0" style="stop-color:#E5162C"/>
	<stop  offset="1" style="stop-color:#A81020"/>
</linearGradient>
<path class="st1" d="M322.994,212.978c0-6.075-4.925-11-11-11s-11,4.925-11,11c0,0.272,0.021,0.538,0.041,0.805
	c-0.021,0.003-0.041,0.007-0.061,0.01c-0.439,41.044-33.832,74.185-74.979,74.185c-41.422,0-75-33.579-75-75
	c0-6.263,0.78-12.341,2.231-18.154c-1.303-0.543-2.731-0.846-4.231-0.846c-6.075,0-11,4.925-11,11V306.47
	c8.408,2.76,17.27,5.399,26.625,7.906c152.909,40.972,213.182-10.692,180.883-154.929
	C331.619,173.054,322.994,192.002,322.994,212.978z"/>
<linearGradient id="SVGID_2_" gradientUnits="userSpaceOnUse" x1="33.9735" y1="73.5029" x2="109.6723" y2="204.6171" gradientTransform="matrix(1 0 0 -1 0 327.89)">
	<stop  offset="0" style="stop-color:#E5162C"/>
	<stop  offset="1" style="stop-color:#A81020"/>
</linearGradient>
<path class="st2" d="M73.994,204.978V102.674c-63.971,75.414-63.974,133.688,0,174.819V204.978z"/>
<linearGradient id="SVGID_3_" gradientUnits="userSpaceOnUse" x1="178.98" y1="130.0908" x2="282.1017" y2="308.7029" gradientTransform="matrix(1 0 0 -1 0 327.89)">
	<stop  offset="0" style="stop-color:#FE7A3E"/>
	<stop  offset="1" style="stop-color:#FD3D4B"/>
</linearGradient>
<path class="st3" d="M137.994,130.789c3.591-0.528,7.262-0.811,11-0.811c41.422,0,75,33.579,75,75v18.81
	c0.65,0.12,1.316,0.19,2,0.19c6.075,0,11-4.925,11-11c0-0.272-0.021-0.538-0.041-0.805c0.021-0.003,0.041-0.007,0.061-0.01
	c0.439-41.044,33.832-74.185,74.979-74.185c10.61,0,20.693,2.221,29.838,6.199c-0.474-1.849-0.94-3.692-1.444-5.571
	C302.267-3.66,234.799-36.401,137.994,40.345V130.789z"/>
<path id="hs_2_" class="st4" d="M341.84,144.182c-9.147-3.981-19.234-6.203-29.847-6.203c-41.148,0-74.54,33.141-74.979,74.185
	c-0.021,0.003-0.041,0.007-0.061,0.01c0.019,0.267,0.041,0.534,0.041,0.805c0,6.075-4.925,11-11,11c-0.684,0-1.351-0.071-2-0.19
	v-18.81c0-41.421-33.578-75-75-75c-3.738,0-7.409,0.283-11,0.811V21.926c-19.854,12.289-41.087,29.722-63.71,52.345
	c-0.098,0.098-0.191,0.195-0.29,0.294v130.413v43v43.687c18.035,8.396,39.371,15.909,64,22.538v-66.225v-43c0-6.075,4.925-11,11-11
	c1.5,0,2.928,0.302,4.231,0.846c-1.451,5.813-2.231,11.891-2.231,18.154c0,41.421,33.578,75,75,75
	c41.148,0,74.54-33.141,74.979-74.185c0.021-0.003,0.041-0.007,0.061-0.01c-0.019-0.267-0.041-0.534-0.041-0.805
	c0-6.075,4.925-11,11-11s11,4.925,11,11c0-20.984,8.631-39.938,22.523-53.546C344.403,154.46,343.174,149.374,341.84,144.182z"/>
</svg>
