<?xml version="1.0" encoding="utf-8"?>
<!-- Generator: Adobe Illustrator 23.0.3, SVG Export Plug-In . SVG Version: 6.00 Build 0)  -->
<svg version="1.1" id="ppxhs" xmlns="http://www.w3.org/2000/svg" xmlns:xlink="http://www.w3.org/1999/xlink" x="0px" y="0px"
	 viewBox="0 0 1289.993 327.971" style="enable-background:new 0 0 1289.993 327.971;" xml:space="preserve">
<style type="text/css">
	.st0{fill:#FCD5D9;}
	.st1{fill-rule:evenodd;clip-rule:evenodd;fill:url(#SVGID_1_);}
	.st2{fill-rule:evenodd;clip-rule:evenodd;fill:url(#SVGID_2_);}
	.st3{fill-rule:evenodd;clip-rule:evenodd;fill:url(#SVGID_3_);}
	.st4{fill-rule:evenodd;clip-rule:evenodd;fill:#FFFFFF;}
	.st5{fill-rule:evenodd;clip-rule:evenodd;fill:#F77482;}
	.st6{fill-rule:evenodd;clip-rule:evenodd;fill:#F1172F;}
</style>
<path class="st0" d="M137.994,21.926c82.855-51.284,141.602-12.596,176.233,116.096c-0.743-0.022-1.485-0.044-2.233-0.044
	c-41.148,0-74.54,33.141-74.979,74.185c-0.021,0.003-0.041,0.007-0.061,0.01c0.019,0.267,0.041,0.533,0.041,0.805
	c0,6.075-4.925,11-11,11c-0.684,0-1.351-0.071-2-0.19v-18.81c0-41.421-33.578-75-75-75c-3.738,0-7.409,0.283-11,0.811V21.926z
	 M322.994,212.978c0-6.075-4.925-11-11-11c-6.075,0-11,4.925-11,11c0,0.272,0.021,0.538,0.041,0.805
	c-0.021,0.003-0.041,0.007-0.061,0.01c-0.439,41.044-33.832,74.185-74.979,74.185c-41.422,0-75-33.579-75-75
	c0-6.263,0.78-12.341,2.231-18.154c-1.303-0.543-2.731-0.846-4.231-0.846c-6.075,0-11,4.925-11,11v109.225
	c0.211,0.057,0.414,0.116,0.625,0.172c140.305,37.595,202.637-2.784,187.008-121.125
	C323.916,199.537,322.994,206.149,322.994,212.978z M73.994,204.978V74.565c-98.658,98.802-98.659,171.169,0,217.1V204.978z"/>
<linearGradient id="SVGID_1_" gradientUnits="userSpaceOnUse" x1="187.0912" y1="334.816" x2="302.6311" y2="134.695">
	<stop  offset="0" style="stop-color:#E5162C"/>
	<stop  offset="1" style="stop-color:#A81020"/>
</linearGradient>
<path class="st1" d="M322.994,212.978c0-6.075-4.925-11-11-11c-6.075,0-11,4.925-11,11c0,0.272,0.021,0.538,0.041,0.805
	c-0.021,0.003-0.041,0.007-0.061,0.01c-0.439,41.044-33.832,74.185-74.979,74.185c-41.422,0-75-33.579-75-75
	c0-6.263,0.78-12.341,2.231-18.154c-1.303-0.543-2.731-0.846-4.231-0.846c-6.075,0-11,4.925-11,11V306.47
	c8.408,2.76,17.27,5.399,26.625,7.906c152.909,40.972,213.182-10.692,180.883-154.929
	C331.619,173.054,322.994,192.002,322.994,212.978z"/>
<linearGradient id="SVGID_2_" gradientUnits="userSpaceOnUse" x1="33.9734" y1="254.3876" x2="109.6722" y2="123.2734">
	<stop  offset="0" style="stop-color:#E5162C"/>
	<stop  offset="1" style="stop-color:#A81020"/>
</linearGradient>
<path class="st2" d="M73.994,204.978V102.674c-63.971,75.414-63.974,133.688,0,174.819V204.978z"/>
<linearGradient id="SVGID_3_" gradientUnits="userSpaceOnUse" x1="178.9803" y1="197.7995" x2="282.102" y2="19.1875">
	<stop  offset="0" style="stop-color:#FE7A3E"/>
	<stop  offset="1" style="stop-color:#FD3D4B"/>
</linearGradient>
<path class="st3" d="M137.994,130.789c3.591-0.528,7.262-0.811,11-0.811c41.422,0,75,33.579,75,75v18.81
	c0.65,0.12,1.316,0.19,2,0.19c6.075,0,11-4.925,11-11c0-0.272-0.021-0.538-0.041-0.805c0.021-0.003,0.041-0.007,0.061-0.01
	c0.439-41.044,33.832-74.185,74.979-74.185c10.61,0,20.693,2.221,29.838,6.199c-0.474-1.849-0.94-3.692-1.444-5.571
	C302.267-3.66,234.799-36.401,137.994,40.345V130.789z"/>
<path id="hs_2_" class="st4" d="M341.84,144.182c-9.147-3.981-19.234-6.203-29.847-6.203c-41.148,0-74.54,33.141-74.979,74.185
	c-0.021,0.003-0.041,0.007-0.061,0.01c0.019,0.267,0.041,0.534,0.041,0.805c0,6.075-4.925,11-11,11c-0.684,0-1.351-0.071-2-0.19
	v-18.81c0-41.421-33.578-75-75-75c-3.738,0-7.409,0.283-11,0.811V21.926c-19.854,12.289-41.087,29.722-63.71,52.345
	c-0.098,0.098-0.191,0.195-0.29,0.294v130.413v43v43.687c18.035,8.396,39.371,15.909,64,22.538v-66.225v-43c0-6.075,4.925-11,11-11
	c1.5,0,2.928,0.302,4.231,0.846c-1.451,5.813-2.231,11.891-2.231,18.154c0,41.421,33.578,75,75,75
	c41.148,0,74.54-33.141,74.979-74.185c0.021-0.003,0.041-0.007,0.061-0.01c-0.019-0.267-0.041-0.534-0.041-0.805
	c0-6.075,4.925-11,11-11c6.075,0,11,4.925,11,11c0-20.984,8.631-39.938,22.523-53.546
	C344.403,154.46,343.174,149.374,341.84,144.182z"/>
<path id="品牌_3_" class="st5" d="M740.994,211.978h-14v23c0,6.627-5.372,12-12,12h-8c-6.627,0-12-5.373-12-12v-23h-39v26
	c0,4.971-4.029,9-9,9h-12c-4.971,0-9-4.03-9-9v-31v-8.5c0-1.933-1.567-3.5-3.5-3.5s-3.5,1.567-3.5,3.5v8.45v28.05
	c0,5.523-4.477,10-10,10h-8c-5.523,0-10-4.477-10-10v-141c0-5.523,4.477-10,10-10h8c5.523,0,10,4.477,10,10v25v2.5
	c0,1.933,1.567,3.5,3.5,3.5s3.5-1.567,3.5-3.5v-2.5v-27c0-4.971,4.029-9,9-9h10c4.97,0,9,4.029,9,9v5.441
	c-2.482,2.819-4,6.507-4,10.559v3c0,4.051,1.518,7.74,4,10.559v0.214c0.195,0.133,0.384,0.275,0.574,0.417
	c0.558,0.57,1.164,1.089,1.802,1.57c2.856,2.889,4.624,6.856,4.624,11.24v6c0,4.785-2.103,9.075-5.432,12.007
	c-0.023,0-0.045-0.007-0.068-0.007h-31c-2.486,0-4.5,2.015-4.5,4.5s2.015,4.5,4.5,4.5h25.609c-0.064,0.492-0.109,0.99-0.109,1.5
	c0,4.359,2.425,8.15,6,10.101v3.399v5h11v2c0,8.284,6.716,15,15,15h10.18c1.557,0,2.82-1.262,2.82-2.82v-14.18v-1
	c0-6.627,5.373-12,12-12h8c6.628,0,12,5.373,12,12v1h14c5.523,0,10,4.477,10,10v10C750.994,207.501,746.517,211.978,740.994,211.978
	z M605.494,87.978c-0.176,0-0.343,0.036-0.5,0.092v-0.092h-3c-3.866,0-7,3.134-7,7v11h0.092c-0.056,0.157-0.092,0.324-0.092,0.5
	c0,0.828,0.671,1.5,1.5,1.5c0.828,0,1.5-0.672,1.5-1.5c0-0.176-0.036-0.343-0.092-0.5h0.092v-10c0-2.761,2.239-5,5-5h2v-0.092
	c0.157,0.056,0.324,0.092,0.5,0.092c0.828,0,1.5-0.672,1.5-1.5C606.994,88.65,606.322,87.978,605.494,87.978z M618.994,156.978v0.05
	c0.334-0.016,0.663-0.05,1-0.05H618.994z M722.994,224.978h-0.101c0.056-0.158,0.101-0.323,0.101-0.5c0-0.829-0.672-1.5-1.5-1.5
	c-0.828,0-1.5,0.672-1.5,1.5c0,0.177,0.044,0.342,0.101,0.5h-0.101v10c0,2.761-2.239,5-5,5h-2v0.101
	c-0.158-0.057-0.323-0.101-0.5-0.101c-0.828,0-1.5,0.672-1.5,1.5c0,0.829,0.672,1.5,1.5,1.5c0.177,0,0.342-0.044,0.5-0.101v0.101h3
	c3.866,0,7-3.134,7-7V224.978z M733.994,171.978h-2.629c-2.599-5.323-8.048-9-14.371-9h-14c-5.91,0-10.946,3.671-13,8.849v19.331
	c0,1.557-1.262,2.82-2.82,2.82h-3.728c-6.325,0-11.452-5.127-11.452-11.452c0-3.964,1.33-7.609,3.548-10.548h-7.548
	c-6.135,0-11.186-4.607-11.904-10.549c6.848-1.812,11.904-8.033,11.904-15.451v-14c0-7.453-5.103-13.697-12-15.476v-4.524
	c0-9.941,8.059-18,18-18h8c0-7.732,6.268-14,14-14h10c7.732,0,14,6.268,14,14h8c9.941,0,18,8.059,18,18v48
	C745.994,166.606,740.621,171.978,733.994,171.978z M686.994,116.978h-2c-2.209,0-4,1.791-4,4c0,2.209,1.791,4,4,4h2
	c2.209,0,4-1.791,4-4C690.994,118.769,689.203,116.978,686.994,116.978z M686.994,140.978h-2c-2.209,0-4,1.791-4,4
	c0,2.209,1.791,4,4,4h2c2.209,0,4-1.791,4-4C690.994,142.769,689.203,140.978,686.994,140.978z M716.994,116.978h-2
	c-2.209,0-4,1.791-4,4c0,2.209,1.791,4,4,4h2c2.209,0,4-1.791,4-4C720.994,118.769,719.203,116.978,716.994,116.978z
	 M716.994,140.978h-2c-2.209,0-4,1.791-4,4c0,2.209,1.791,4,4,4h2c2.209,0,4-1.791,4-4
	C720.994,142.769,719.203,140.978,716.994,140.978z M740.494,117.978c0.829,0,1.5-0.672,1.5-1.5c0-0.177-0.044-0.342-0.101-0.5
	h0.101v-4c0-7.732-6.268-14-14-14h-4v0.101c-0.158-0.057-0.323-0.101-0.5-0.101c-0.829,0-1.5,0.672-1.5,1.5
	c0,0.828,0.672,1.5,1.5,1.5c0.177,0,0.342-0.044,0.5-0.101v0.101h4c6.075,0,11,4.925,11,11v4h0.101
	c-0.057,0.158-0.101,0.323-0.101,0.5C738.994,117.307,739.666,117.978,740.494,117.978z M552.994,247.978h-48
	c-8.836,0-16-7.163-16-16v-49c0-8.837,7.164-16,16-16h48c8.837,0,16,7.163,16,16v49C568.994,240.815,561.83,247.978,552.994,247.978
	z M538.994,196.978c0-1.657-1.343-3-3-3h-14c-1.657,0-3,1.343-3,3v21c0,1.657,1.343,3,3,3h14c1.657,0,3-1.343,3-3V196.978z
	 M564.994,225.978h-0.101c0.057-0.158,0.101-0.323,0.101-0.5c0-0.828-0.672-1.5-1.5-1.5c-0.828,0-1.5,0.672-1.5,1.5
	c0,0.177,0.044,0.342,0.101,0.5h-0.101v4c0,6.075-4.925,11-11,11h-4v0.101c-0.158-0.057-0.323-0.101-0.5-0.101
	c-0.829,0-1.5,0.672-1.5,1.5c0,0.828,0.672,1.5,1.5,1.5c0.177,0,0.342-0.044,0.5-0.101v0.101h4c7.732,0,14-6.268,14-14V225.978z
	 M528.994,158.978h-6h-3h-21c-5.565,0-10.411,3.038-13,7.538c-2.589-4.501-7.435-7.538-13-7.538h-21h-3h-6c-8.837,0-16-7.163-16-16
	v-43c0-8.837,7.163-16,16-16h86c8.837,0,16,7.164,16,16v43C544.994,151.815,537.83,158.978,528.994,158.978z M508.994,114.978
	c0-1.657-1.343-3-3-3h-40c-1.657,0-3,1.343-3,3v13c0,1.657,1.343,3,3,3h40c1.657,0,3-1.343,3-3V114.978z M482.994,182.978v49
	c0,8.837-7.164,16-16,16h-48c-8.837,0-16-7.163-16-16v-49c0-8.837,7.163-16,16-16h48
	C475.83,166.978,482.994,174.142,482.994,182.978z M425.494,170.978c-0.177,0-0.342,0.044-0.5,0.101v-0.101h-4
	c-7.732,0-14,6.268-14,14v4h0.101c-0.057,0.158-0.101,0.323-0.101,0.5c0,0.828,0.671,1.5,1.5,1.5c0.828,0,1.5-0.672,1.5-1.5
	c0-0.177-0.044-0.342-0.101-0.5h0.101v-4c0-6.075,4.925-11,11-11h4v-0.101c0.158,0.057,0.323,0.101,0.5,0.101
	c0.829,0,1.5-0.672,1.5-1.5C426.994,171.65,426.322,170.978,425.494,170.978z M452.994,196.978c0-1.657-1.343-3-3-3h-14
	c-1.657,0-3,1.343-3,3v21c0,1.657,1.343,3,3,3h14c1.657,0,3-1.343,3-3V196.978z"/>
<path id="小红薯_5_" class="st6" d="M927.994,211.978c-4.577,3.369-9.617,5.185-12,6c-7.447,2.84-17.568-2.345-22-11
	c-10.535-22.04-14.583-50.755-17-63c-2.417-12.245,1.097-21.552,9-24c2.445-0.782,5.606-1.837,10-2c0,0,13.552-1.2,17,12
	c5.866,21.456,8.858,32.478,18,59C934.596,198.86,932.794,208.445,927.994,211.978z M853.994,247.978h-2h-6h-26
	c-8.837,0-16-7.163-16-16v-10c0-7.732,6.268-14,14-14h5h1.05h4.95c1.657,0,3-1.343,3-3v-2v-1v-47.152
	c1.387-5.21,2.695-10.495,4.018-15.962c2.264-6.65,0.206-13.262-4.018-17.401V93.978c0-7.732,6.268-14,14-14h14
	c7.732,0,14,6.268,14,14v22.837c-6.471,3.317-9.201,12.012-7,23.163c1.429,7.239,3.428,20.233,7,34.201v53.799
	C873.994,239.024,865.039,247.978,853.994,247.978z M869.994,211.978h-0.101c0.057-0.158,0.101-0.323,0.101-0.5
	c0-0.828-0.671-1.5-1.5-1.5c-0.828,0-1.5,0.672-1.5,1.5c0,0.177,0.044,0.342,0.101,0.5h-0.101v16c0,7.18-5.82,13-13,13h-4v0.101
	c-0.158-0.057-0.323-0.101-0.5-0.101c-0.828,0-1.5,0.672-1.5,1.5c0,0.828,0.672,1.5,1.5,1.5c0.177,0,0.342-0.044,0.5-0.101v0.101h4
	c8.837,0,16-7.164,16-16V211.978z M806.397,203.952c-4.423,8.66-15.81,15.173-23.243,12.331c-2.379-0.816-4.756-1.728-7.2-2.752
	c-8.01-3.504-13.219-13.975-9.906-21.614c8.301-20.103,15.332-41.376,21.187-62.846c2.045-8.353,13.146-12.896,22.111-10.512
	c2.684,0.741,5.225,1.487,7.664,2.269c7.887,2.45,13.173,11.72,10.001,21.036C821.832,163.262,816.912,181.899,806.397,203.952z
	 M1101.994,243.978h-82c-5.523,0-10-4.477-10-10v-14c0-5.523,4.477-10,10-10h16h6c1.105,0,2-0.895,2-2v-79c0-1.105-0.896-2-2-2h-6
	h-4.744c-3.583-10.121-12.425-17.729-23.257-19.55v-4.45c0-5.523,4.477-10,10-10h80c5.523,0,10,4.477,10,10v14
	c0,5.523-4.477,10-10,10h-10h-6c-1.104,0-2,0.895-2,2v79c0,1.105,0.896,2,2,2h6h14c5.523,0,10,4.477,10,10v14
	C1111.994,239.501,1107.517,243.978,1101.994,243.978z M1107.994,225.978h-0.101c0.057-0.158,0.101-0.323,0.101-0.5
	c0-0.828-0.672-1.5-1.5-1.5c-0.828,0-1.5,0.672-1.5,1.5c0,0.177,0.044,0.342,0.101,0.5h-0.101v7c0,2.209-1.791,4-4,4h-6v0.101
	c-0.158-0.057-0.323-0.101-0.5-0.101c-0.829,0-1.5,0.672-1.5,1.5c0,0.828,0.671,1.5,1.5,1.5c0.177,0,0.342-0.044,0.5-0.101v0.101h6
	c3.866,0,7-3.134,7-7V225.978z M986.994,129.978c1.951,0,2.057-0.271,4-3c3.775-5.301,9.817-12,15-12c12.875,0,18.675,12.586,19,17
	c0.827,11.23-21,27.141-21,32c0,1.952,6.513,1,11,1s8,3.067,8,8c0,11.342-1.503,14.301-5,18c-3.496,3.699-47.344,10-58,10
	c-10.656,0-16-6.651-16-12c0-14.813,16.564-23.472,19-29c0.623-1.413,1.001-3-2-3c-11.773,0-13.256-1.258-17-7
	c-4.952-7.595-2.054-17.756,13-41c15.163-23.412,20.311-30.761,31-28c20.519,5.3,14.232,20.913,13,23
	c-1.232,2.087-12.845,17.471-15,21C984.706,127.088,985.043,129.978,986.994,129.978z M964.994,147.979
	c-3.868,1.143-8.468,4.136-13,0c-4.471-4.08-5.491-12.648,6-27c3.427-4.28,0.142-4.119-1-3c-1.142,1.119-18.917,21.89-7,33
	c3.958,3.69,12.723,1.581,15,0C967.327,149.358,968.082,147.066,964.994,147.979z M973.994,209.978c13.806-3.066,43-12,43-12
	c4.032-0.445-7.796,7.675-11,15c-1.773,4.052,0.245,16.399-3,21c-2.126,3.015-29.416,10.542-45,13c-15.584,2.458-16-16.381-16-25
	C941.994,213.36,960.188,213.044,973.994,209.978z M1279.994,111.978h-2.696c-2.623-1.881-5.829-3-9.303-3h-10v5h5
	c8.837,0,16,7.163,16,16v8c0,5.523-4.477,10-10,10h-44.989c-5.319-4.279-13.198-7-22.011-7c-8.813,0-16.693,2.721-22.011,7h-32.989
	c-5.523,0-10-4.477-10-10v-8c0-8.837,7.164-16,16-16h5v-5h-10c-3.474,0-6.68,1.119-9.304,3h-2.697c-5.523,0-10-4.477-10-10v-4
	c0-5.523,4.477-10,10-10h24.158c2.768-4.778,7.923-8,13.842-8h10c5.919,0,11.074,3.222,13.842,8h20.316
	c2.768-4.778,7.923-8,13.842-8h10c5.919,0,11.074,3.222,13.842,8h24.158c5.523,0,10,4.477,10,10v4
	C1289.994,107.501,1285.517,111.978,1279.994,111.978z M1172.994,127.978h-2c-2.209,0-4,1.791-4,4c0,2.209,1.791,4,4,4h2
	c2.209,0,4-1.791,4-4C1176.994,129.769,1175.203,127.978,1172.994,127.978z M1206.994,135.978h2c2.209,0,4-1.791,4-4
	c0-2.209-1.791-4-4-4h-2c-2.209,0-4,1.791-4,4C1202.994,134.188,1204.785,135.978,1206.994,135.978z M1215.994,107.978h-16
	c-1.657,0-3,1.343-3,3s1.343,3,3,3h16c1.657,0,3-1.343,3-3S1217.651,107.978,1215.994,107.978z M1244.994,127.978h-2
	c-2.209,0-4,1.791-4,4c0,2.209,1.791,4,4,4h2c2.209,0,4-1.791,4-4C1248.994,129.769,1247.203,127.978,1244.994,127.978z
	 M1151.994,198.978h-14c-6.628,0-12-5.373-12-12s5.373-12,12-12h0.521c2.933,3.655,7.429,6,12.479,6h11h20h1v-0.184
	c1.163-0.413,2-1.512,2-2.816c0-1.304-0.837-2.403-2-2.816v-0.184h-1h-20h-12c-4.971,0-9-4.03-9-9v-3c0-4.971,4.029-9,9-9h34.618
	c2.076-3.583,5.943-6,10.382-6h14c4.439,0,8.306,2.417,10.382,6h20.618c4.971,0,9,4.029,9,9v3c0,4.971-4.029,9-9,9h-18h-1v0.184
	c-1.162,0.413-2,1.512-2,2.816c0,1.304,0.838,2.403,2,2.816v0.184h1h20h1c6.628,0,12-5.373,12-12v-6c0-3.02-0.966-5.81-2.592-8.097
	c1.743-2.932,4.933-4.903,8.592-4.903c8.836,0,16,7.163,16,16v9c6.282,0,11.428,4.83,11.948,10.978
	c0.034,0.336,0.052,0.677,0.052,1.022v4c0,5.523-4.477,10-10,10h-0.027c-3.65-4.85-9.436-8-15.973-8h-34h-6h-6c-1.657,0-3,1.343-3,3
	c0,1.657,1.343,3,3,3h6h40c8.284,0,15,6.716,15,15v22c0,6.627-5.373,12-12,12h-89c-8.284,0-15-6.716-15-15v-8c0-4.894-14.738,8-26,8
	c-6.454,0-10.311-4.542-11-16C1124.031,200.969,1141.792,206.894,1151.994,198.978z M1195.494,232.978h49c1.381,0,2.5-1.119,2.5-2.5
	c0-1.381-1.119-2.5-2.5-2.5h-49c-1.38,0-2.5,1.119-2.5,2.5C1192.994,231.859,1194.113,232.978,1195.494,232.978z M1195.494,215.978
	h49c1.381,0,2.5-1.119,2.5-2.5s-1.119-2.5-2.5-2.5h-49c-1.38,0-2.5,1.119-2.5,2.5S1194.113,215.978,1195.494,215.978z
	 M1139.994,225.978c9.031-2.82,13.825-3.86,25-9c8.016-3.687,23.898-13.074,33-21c22.135-19.276,16-40,16-40
	c0.169-2.976-2.909-3.218-3,1c-0.091,4.218,1.474,16.44-8,29c-5.681,7.532-23.964,20.551-38,27c-13.714,6.301-25.683,9.648-27,10
	C1131.759,224.647,1130.522,228.937,1139.994,225.978z"/>
</svg>
